<?xml version="1.0" standalone="no"?><!DOCTYPE svg PUBLIC "-//W3C//DTD SVG 1.1//EN" "http://www.w3.org/Graphics/SVG/1.1/DTD/svg11.dtd"><svg t="1764761470927" class="icon" viewBox="0 0 1024 1024" version="1.1" xmlns="http://www.w3.org/2000/svg" p-id="23360" xmlns:xlink="http://www.w3.org/1999/xlink" width="200" height="200"><path d="M927.2 383.9H96.7c-13.6 0-20.8 14-12.8 23.2l415.6 483.2c0 0.4 0.4 0.4 0.8 0.8 7.2 6.4 18 6 24.4-0.8L940 407.1c8-9.2 0.4-23.2-12.8-23.2z m16.8-256H80c-8.8 0-16 7.2-16 16v96c0 8.8 7.2 16 16 16h864c8.8 0 16-7.2 16-16v-96c0-8.8-7.2-16-16-16z m0 0" p-id="23361"></path></svg>