<?xml version="1.0" standalone="no"?><!DOCTYPE svg PUBLIC "-//W3C//DTD SVG 1.1//EN" "http://www.w3.org/Graphics/SVG/1.1/DTD/svg11.dtd"><svg t="1765185890919" class="icon" viewBox="0 0 1024 1024" version="1.1" xmlns="http://www.w3.org/2000/svg" p-id="35078" xmlns:xlink="http://www.w3.org/1999/xlink" width="200" height="200"><path d="M25.62862268 664.34812089c0 55.22619331 58.4635912 99.97845492 130.63851346 99.9784549 72.17492226 0 130.63851346-44.75226013 130.63851495-99.9784549s-58.4635912-99.97845492-130.63851495-99.97845347c-72.17492226 0-130.63851346 44.75226013-130.63851346 99.97845347z m708.99006937 0c0 55.22619331 58.4635912 99.97845492 130.63851494 99.9784549 72.17492226 0 130.63851346-44.75226013 130.63851348-99.9784549s-58.4635912-99.97845492-130.63851348-99.97845347c-71.79405175 0-130.63851346 44.75226013-130.63851494 99.97845347zM2.77640374-6.93578844" fill="#FFDBE0" p-id="35079"></path><path d="M232.44119733 484.76777312c-18.66264478 0-33.51658738 14.28263683-33.5165874 31.99310533v51.2270559c0 17.71046849 14.85394114 31.99310533 33.5165874 31.99310533s33.51658738-14.28263683 33.5165859-31.99310533v-51.2270559c0-17.71046849-14.85394114-31.99310533-33.5165859-31.99310533z m557.02281901 0c-18.66264478 0-33.51658738 14.28263683-33.51658738 31.99310533v51.2270559c0 17.71046849 14.85394114 31.99310533 33.51658738 31.99310533s33.51658738-14.28263683 33.51658739-31.99310533v-51.2270559c-0.19043525-17.71046849-15.23481164-31.99310533-33.51658739-31.99310533zM606.45583545 542.46962477c-14.09220158-11.61654474-35.04006796-10.28349793-47.22791847 3.04696261-25.51831105 27.9939679-71.03231221 27.9939679-96.36018652 0-11.80697998-13.33046055-33.13571687-14.85394114-47.227917-3.61826839-14.09220158 11.61654474-15.80611741 31.61223482-3.61826838 45.13313065 0 0.38087052 0.38087052 0.38087052 0.57130577 0.57130577 52.17923216 57.32098113 145.11158557 57.32098113 197.10038247 0 11.99741524-13.14002531 10.66436844-33.70702116-3.23739787-45.13313064z m0 0" fill="#313D40" p-id="35080"></path></svg>