<?xml version="1.0" standalone="no"?><!DOCTYPE svg PUBLIC "-//W3C//DTD SVG 1.1//EN" "http://www.w3.org/Graphics/SVG/1.1/DTD/svg11.dtd"><svg t="1765186302480" class="icon" viewBox="0 0 1024 1024" version="1.1" xmlns="http://www.w3.org/2000/svg" p-id="54464" xmlns:xlink="http://www.w3.org/1999/xlink" width="200" height="200"><path d="M983.04 711.68l-174.08-184.32c-30.72-30.72-87.04-30.72-117.76 0l-174.08 184.32c-25.6 25.6-25.6 51.2-15.36 66.56 10.24 20.48 25.6 30.72 51.2 30.72v71.68c0 46.08 35.84 87.04 76.8 87.04H870.4c40.96 0 76.8-40.96 76.8-87.04v-71.68c25.6 0 40.96-10.24 51.2-30.72 10.24-15.36 10.24-40.96-15.36-66.56zM773.12 921.6h-46.08v-138.24h46.08V921.6z m179.2-158.72h-51.2v117.76c0 20.48-10.24 40.96-30.72 40.96h-51.2v-138.24c0-25.6-20.48-46.08-46.08-46.08h-46.08c-25.6 0-46.08 20.48-46.08 46.08V921.6h-46.08c-20.48 0-30.72-20.48-30.72-40.96v-117.76h-51.2c-5.12 0-5.12 0-10.24-5.12 0 0 0-10.24 10.24-15.36l174.08-184.32c5.12-5.12 15.36-10.24 25.6-10.24s15.36 5.12 25.6 10.24l174.08 184.32c10.24 10.24 10.24 15.36 10.24 15.36-5.12 5.12-5.12 5.12-10.24 5.12zM460.8 87.04c112.64 0 204.8 92.16 204.8 204.8s-92.16 204.8-204.8 204.8-204.8-92.16-204.8-204.8 87.04-204.8 204.8-204.8M460.8 25.6C312.32 25.6 194.56 143.36 194.56 291.84s117.76 266.24 266.24 266.24 266.24-117.76 266.24-266.24S604.16 25.6 460.8 25.6z" p-id="54465"></path><path d="M81.92 962.56c-15.36 0-30.72-15.36-30.72-30.72 0-225.28 184.32-404.48 404.48-404.48 40.96 0 81.92 5.12 117.76 20.48 15.36 5.12 25.6 20.48 20.48 40.96-5.12 15.36-20.48 25.6-40.96 20.48-30.72-10.24-66.56-15.36-102.4-15.36-189.44 0-343.04 153.6-343.04 343.04 5.12 10.24-5.12 25.6-25.6 25.6z" p-id="54466"></path></svg>