<?xml version="1.0" standalone="no"?><!DOCTYPE svg PUBLIC "-//W3C//DTD SVG 1.1//EN" "http://www.w3.org/Graphics/SVG/1.1/DTD/svg11.dtd"><svg t="1764735133593" class="icon" viewBox="0 0 1024 1024" version="1.1" xmlns="http://www.w3.org/2000/svg" p-id="8764" xmlns:xlink="http://www.w3.org/1999/xlink" width="200" height="200"><path d="M380.342857 789.942857c-109.714286 0-204.8-102.4-204.8-226.742857V277.942857C175.542857 153.6 263.314286 51.2 380.342857 51.2h256c109.714286 0 204.8 102.4 204.8 226.742857v285.257143c0 124.342857-87.771429 226.742857-204.8 226.742857H380.342857z"  p-id="8765"></path><path d="M928.914286 416.914286H1024v190.171428c0 204.8-160.914286 365.714286-365.714286 365.714286H365.714286c-204.8 0-365.714286-160.914286-365.714286-365.714286V416.914286h95.085714v190.171428C95.085714 753.371429 219.428571 877.714286 365.714286 877.714286h292.571428c146.285714 0 270.628571-124.342857 270.628572-270.628572V416.914286z m95.085714 0v190.171428c0 204.8-160.914286 365.714286-365.714286 365.714286H365.714286c-204.8 0-365.714286-160.914286-365.714286-365.714286V416.914286h95.085714v190.171428C95.085714 753.371429 219.428571 877.714286 365.714286 877.714286h292.571428c146.285714 0 270.628571-124.342857 270.628572-270.628572V416.914286H1024z"  p-id="8766"></path></svg>